# xmcd
#
# Track frame offsets: 
#        150
#        5460
#        21935
#        44296
#        55270
#        74665
#        86815
#        104777
#        114642
#        128333
#        149796
#        165084
#        181591
#        193884
#        202687
#        213632
#        226700
#        243726
#        261522
#        268407
#        282549
#        302917
#
# Disc length: 4107 seconds
#
# Revision: 0
# Processed by: cddbd v1.5.1PL2 Copyright (c) Steve Scherf et al.
# Submitted via: ExactAudioCopy v0.90b4
#
DISCID=52100916
DTITLE=Arsen Dedic - Homo volans
DYEAR=1973
DGENRE=Chanson
TTITLE0=Citavu noc slavulj...
TTITLE1=Ti se smijes
TTITLE2=Mirni podstanar
TTITLE3=Oprosti mi
TTITLE4=Ponovo ti govorim...
TTITLE5=Tvoje njezne godine
TTITLE6=Ana je Ana
TTITLE7=Ti trebas ljubavi
TTITLE8=Neces biti sama
TTITLE9=To nije vazno
TTITLE10=Pravilna ishrana
TTITLE11=Vrtovi malih kuca
TTITLE12=Pjesma o sutnji
TTITLE13=Kada sretnem djevu bajnu
TTITLE14=Suncano lice (Il tuo viso del sole)
TTITLE15=Prica o jednom kapetanu
TTITLE16=Modra rijeka
TTITLE17=Ofelija
TTITLE18=Balada o smrti
TTITLE19=Mala pjesma
TTITLE20=Laku noc muzicari
TTITLE21=Citavu noc slavulj (2)...
EXTD=
EXTT0=
EXTT1=
EXTT2=
EXTT3=
EXTT4=
EXTT5=
EXTT6=
EXTT7=
EXTT8=
EXTT9=
EXTT10=
EXTT11=
EXTT12=
EXTT13=
EXTT14=
EXTT15=
EXTT16=
EXTT17=
EXTT18=
EXTT19=
EXTT20=
EXTT21=
PLAYORDER=
